<?xml version="1.0" encoding="utf-8"?>
<!-- Generator: Adobe Illustrator 25.0.0, SVG Export Plug-In . SVG Version: 6.00 Build 0)  -->
<svg version="1.1" id="图层_1" xmlns="http://www.w3.org/2000/svg" xmlns:xlink="http://www.w3.org/1999/xlink" x="0px" y="0px"
	 viewBox="0 0 31.9 32" style="enable-background:new 0 0 31.9 32;" xml:space="preserve">
<style type="text/css">
	.st0{fill:url(#SVGID_1_);}
	.st1{fill:url(#SVGID_2_);}
</style>
<g>
	<linearGradient id="SVGID_1_" gradientUnits="userSpaceOnUse" x1="5.2548" y1="21.584" x2="22.366" y2="0.8743">
		<stop  offset="0" style="stop-color:#41D1FF"/>
		<stop  offset="1" style="stop-color:#BD34FE"/>
	</linearGradient>
	<path class="st0" d="M30.9,3.5L16.2,6.2c-0.1,0-0.2,0-0.3,0L1,3.5C0.3,3.4-0.2,4.1,0.1,4.7L9,20.3L9.7,8.8c0-0.2,0.1-0.3,0.3-0.4
		l11.1-2.2h0c0.3-0.1,0.6,0.2,0.5,0.5l-2.1,7.2c-0.1,0.3,0.2,0.6,0.5,0.5l3.2-0.6c0.3-0.1,0.6,0.3,0.4,0.6l-8.4,16.7l0.2,0.4
		c0.3,0.6,1.1,0.5,1.4,0l15-26.8C32.1,4.1,31.6,3.4,30.9,3.5z"/>
	<linearGradient id="SVGID_2_" gradientUnits="userSpaceOnUse" x1="10.7236" y1="26.2449" x2="14.1706" y2="22.073">
		<stop  offset="0" style="stop-color:#41D1FF"/>
		<stop  offset="1" style="stop-color:#BD34FE"/>
	</linearGradient>
	<path class="st1" d="M12.6,20l-3.1,0.7c0,0-0.1,0-0.1,0c-0.1,0-0.1,0-0.2,0l5,8.8l0.9-4.1c0.1-0.3-0.2-0.6-0.5-0.5l-1.9,0.6
		c-0.3,0.1-0.6-0.2-0.5-0.5l0.9-4.5C13.1,20.2,12.8,19.9,12.6,20z"/>
</g>
</svg>
